<svg xmlns="http://www.w3.org/2000/svg" viewBox="0 0 500 500"><g id="freepik--background-complete--inject-2"><rect x="416.78" y="398.49" width="33.12" height="0.25" style="fill:#ebebeb"></rect><rect x="322.53" y="401.21" width="8.69" height="0.25" style="fill:#ebebeb"></rect><rect x="396.59" y="389.21" width="19.19" height="0.25" style="fill:#ebebeb"></rect><rect x="52.46" y="390.89" width="43.19" height="0.25" style="fill:#ebebeb"></rect><rect x="104.56" y="390.89" width="6.33" height="0.25" style="fill:#ebebeb"></rect><rect x="131.47" y="395.11" width="93.68" height="0.25" style="fill:#ebebeb"></rect><path d="M238.4,337.8H45.3a5.71,5.71,0,0,1-5.71-5.71V60.66A5.71,5.71,0,0,1,45.3,55H238.4a5.71,5.71,0,0,1,5.71,5.71V332.09A5.71,5.71,0,0,1,238.4,337.8ZM45.3,55.2a5.47,5.47,0,0,0-5.46,5.46V332.09a5.47,5.47,0,0,0,5.46,5.46H238.4a5.47,5.47,0,0,0,5.46-5.46V60.66a5.47,5.47,0,0,0-5.46-5.46Z" style="fill:#ebebeb"></path><path d="M454.7,337.8H261.6a5.71,5.71,0,0,1-5.71-5.71V60.66A5.71,5.71,0,0,1,261.6,55H454.7a5.71,5.71,0,0,1,5.71,5.71V332.09A5.71,5.71,0,0,1,454.7,337.8ZM261.6,55.2a5.47,5.47,0,0,0-5.46,5.46V332.09a5.47,5.47,0,0,0,5.46,5.46H454.7a5.47,5.47,0,0,0,5.46-5.46V60.66a5.47,5.47,0,0,0-5.46-5.46Z" style="fill:#ebebeb"></path><rect y="382.4" width="500" height="0.25" style="fill:#ebebeb"></rect><path d="M418.6,287.55c-1.92,1.92-2.82,10.49-2.82,10.49s-.91-8.57-2.83-10.49-10.48-2.82-10.48-2.82,8.56-.9,10.48-2.82,2.83-10.49,2.83-10.49.9,8.57,2.82,10.49,10.49,2.82,10.49,2.82S420.52,285.63,418.6,287.55Z" style="fill:#f5f5f5"></path><path d="M432.7,330.77c-3,3-4.36,16.2-4.36,16.2s-1.4-13.23-4.36-16.2-16.21-4.37-16.21-4.37S421,325,424,322s4.36-16.21,4.36-16.21,1.4,13.24,4.36,16.21,16.21,4.36,16.21,4.36S435.67,327.8,432.7,330.77Z" style="fill:#f0f0f0"></path><path d="M401,342.69c-1.28,1.28-1.89,7-1.89,7s-.6-5.73-1.88-7-7-1.89-7-1.89,5.73-.6,7-1.89,1.88-7,1.88-7,.61,5.73,1.89,7,7,1.89,7,1.89S402.24,341.4,401,342.69Z" style="fill:#ebebeb"></path><path d="M111.69,110.77c3.6,3.6,19.69,5.3,19.69,5.3s-16.09,1.7-19.69,5.3-5.31,19.7-5.31,19.7-1.7-16.09-5.3-19.7-19.7-5.3-19.7-5.3,16.09-1.7,19.7-5.3,5.3-19.7,5.3-19.7S108.08,107.16,111.69,110.77Z" style="fill:#f5f5f5"></path><path d="M138.27,88.42c1.8,1.8,9.85,2.65,9.85,2.65s-8.05.85-9.85,2.65-2.65,9.85-2.65,9.85-.85-8-2.65-9.85-9.85-2.65-9.85-2.65,8-.85,9.85-2.65,2.65-9.85,2.65-9.85S136.47,86.61,138.27,88.42Z" style="fill:#f0f0f0"></path><path d="M172.13,125c1.29,1.28,7,1.89,7,1.89s-5.72.6-7,1.89-1.89,7-1.89,7-.6-5.73-1.89-7-7-1.89-7-1.89,5.73-.61,7-1.89,1.89-7,1.89-7S170.85,123.73,172.13,125Z" style="fill:#ebebeb"></path><path d="M338.86,86.82C336.94,88.74,336,97.31,336,97.31s-.9-8.57-2.82-10.49S322.73,84,322.73,84s8.57-.91,10.49-2.83S336,70.69,336,70.69s.9,8.57,2.82,10.48S349.35,84,349.35,84,340.78,84.9,338.86,86.82Z" style="fill:#f5f5f5"></path><path d="M194.86,80.07a8.06,8.06,0,1,0,8.06,8.06A8.05,8.05,0,0,0,194.86,80.07Zm0,6c-2.45,0-4.44,2.51-4.44.06a4.45,4.45,0,1,1,8.89,0C199.31,88.58,197.32,86.07,194.86,86.07Z" style="fill:#f5f5f5"></path><path d="M201.44,83.49a7,7,0,0,1,.52,2.64,7.1,7.1,0,1,1-14.19,0,7,7,0,0,1,.51-2.64,8.06,8.06,0,1,0,13.16,0Z" style="fill:#f0f0f0"></path><path d="M197.57,102.2A10.77,10.77,0,1,0,208.33,113,10.76,10.76,0,0,0,197.57,102.2Zm0,8c-3.28,0-5.93,3.35-5.93.07a5.93,5.93,0,0,1,11.86,0C203.5,113.57,200.85,110.22,197.57,110.22Z" style="fill:#fafafa"></path><path d="M206.36,106.77a9.48,9.48,0,1,1-17.58,0,10.76,10.76,0,1,0,17.58,0Z" style="fill:#f5f5f5"></path><path d="M209.11,92.6a4.61,4.61,0,1,0,0,6.52A4.61,4.61,0,0,0,209.11,92.6ZM206.68,95c-1-1-2.81-.78-1.82-1.78a2.54,2.54,0,0,1,3.59,3.6C207.46,97.84,207.67,96,206.68,95Z" style="fill:#f5f5f5"></path><path d="M210.39,96.65a4.06,4.06,0,0,1-6.61,1.28,4.06,4.06,0,0,1,0-5.75,4.12,4.12,0,0,1,1.28-.86,4.61,4.61,0,0,0-2.47,7.8,4.61,4.61,0,0,0,7.8-2.47Z" style="fill:#f0f0f0"></path><path d="M97.34,346.16A9.3,9.3,0,1,0,84.2,346,9.3,9.3,0,0,0,97.34,346.16Zm-4.85-4.94c2-2,1.63-5.66,3.61-3.64a5.12,5.12,0,1,1-7.31,7.18C86.81,342.74,90.47,343.2,92.49,341.22Z" style="fill:#f5f5f5"></path><path d="M89.16,348.66A8.18,8.18,0,1,1,100,338a9.29,9.29,0,1,0-15.8,8A9.17,9.17,0,0,0,89.16,348.66Z" style="fill:#f0f0f0"></path><path d="M83.43,314.7a12.42,12.42,0,1,0-17.56-.17A12.42,12.42,0,0,0,83.43,314.7ZM77,308.1c2.7-2.65,2.18-7.56,4.83-4.86A6.85,6.85,0,1,1,72,312.83C69.36,310.13,74.26,310.75,77,308.1Z" style="fill:#fafafa"></path><path d="M72.5,318a10.94,10.94,0,1,1,12.19-17.68A11.08,11.08,0,0,1,87,303.83,12.42,12.42,0,1,0,72.5,318Z" style="fill:#f5f5f5"></path><path d="M437.79,181a12.42,12.42,0,1,0-17.56-.17A12.43,12.43,0,0,0,437.79,181Zm-6.48-6.6c2.7-2.65,2.18-7.56,4.82-4.86a6.85,6.85,0,0,1-9.77,9.59C423.71,176.39,428.61,177,431.31,174.36Z" style="fill:#fafafa"></path><path d="M426.86,184.3a10.93,10.93,0,1,1,14.48-14.21,12.42,12.42,0,1,0-14.48,14.21Z" style="fill:#f5f5f5"></path><path d="M302,123.06a17.46,17.46,0,1,0-24.69-.23A17.46,17.46,0,0,0,302,123.06Zm-9.1-9.28c3.79-3.72,3.05-10.62,6.78-6.83a9.63,9.63,0,0,1-13.74,13.49C282.17,116.64,289.06,117.51,292.86,113.78Z" style="fill:#fafafa"></path><path d="M286.6,127.77a15.38,15.38,0,1,1,20.35-20,17.46,17.46,0,1,0-20.35,20Z" style="fill:#f5f5f5"></path><path d="M429,199.91a5.32,5.32,0,1,0-5.27-5.37A5.31,5.31,0,0,0,429,199.91Zm0-4c1.62,0,2.95-1.63,2.93,0a2.93,2.93,0,1,1-5.86-.05C426.07,194.27,427.37,195.94,429,196Z" style="fill:#f5f5f5"></path><path d="M424.63,197.62a4.91,4.91,0,0,1-.33-1.76,4.69,4.69,0,0,1,9.38.09,4.84,4.84,0,0,1-.36,1.75,5.32,5.32,0,1,0-8.69-.08Z" style="fill:#f0f0f0"></path><path d="M196.94,347.5c3.6,3.6,19.69,5.3,19.69,5.3s-16.09,1.7-19.69,5.3-5.31,19.7-5.31,19.7-1.69-16.09-5.3-19.7-19.7-5.3-19.7-5.3,16.1-1.7,19.7-5.3,5.3-19.7,5.3-19.7S193.33,343.89,196.94,347.5Z" style="fill:#f5f5f5"></path><path d="M366,117.05c-1.8,1.8-2.65,9.85-2.65,9.85s-.85-8.05-2.65-9.85-9.85-2.65-9.85-2.65,8-.85,9.85-2.65,2.65-9.85,2.65-9.85.85,8,2.65,9.85,9.85,2.65,9.85,2.65S367.77,115.25,366,117.05Z" style="fill:#f0f0f0"></path></g><g id="freepik--Shadow--inject-2"><ellipse id="freepik--path--inject-2" cx="250" cy="412.39" rx="193.89" ry="11.32" style="fill:#f5f5f5"></ellipse></g><g id="freepik--Toothpaste--inject-2"><rect x="120.21" y="350.95" width="33.9" height="7.2" transform="translate(-36.31 16.28) rotate(-6)" style="fill:#4AA66F"></rect><rect x="120.49" y="355.91" width="36" height="22.58" transform="translate(-37.62 16.49) rotate(-6)" style="fill:#4AA66F"></rect><rect x="120.49" y="355.91" width="36" height="22.58" transform="translate(-37.62 16.49) rotate(-6)" style="fill:#fff;opacity:0.5"></rect><g style="opacity:0.4"><path d="M135.32,361.11a.9.9,0,0,0-.8,1l1.75,16.68,1.79-.19-1.75-16.68A.91.91,0,0,0,135.32,361.11Z" style="fill:#fff"></path><path d="M141.36,360.48a.9.9,0,0,0-.8,1l1.75,16.68,1.79-.19-1.75-16.68A.89.89,0,0,0,141.36,360.48Z" style="fill:#fff"></path><path d="M129.28,361.75a.89.89,0,0,0-.8,1l1.75,16.68,1.79-.19-1.75-16.68A.9.9,0,0,0,129.28,361.75Z" style="fill:#fff"></path><path d="M147.4,359.84a.91.91,0,0,0-.8,1l1.75,16.68,1.79-.19-1.75-16.68A.9.9,0,0,0,147.4,359.84Z" style="fill:#fff"></path><path d="M153.44,359.21a.9.9,0,0,0-.8,1l1.76,16.68,1.79-.19L154.43,360A.89.89,0,0,0,153.44,359.21Z" style="fill:#fff"></path><path d="M126,379.86l-1.76-16.68a.9.9,0,0,0-1-.8.91.91,0,0,0-.81,1l1.76,16.68Z" style="fill:#fff"></path></g><path d="M74.73,164.71l1.21,11.52L112.79,349a8.15,8.15,0,0,0,8.81,6.4l31-3.26a8.12,8.12,0,0,0,7.28-8.09L160,167.4l-1.22-11.53Z" style="fill:#4AA66F"></path><path d="M74.73,164.71l1.21,11.52L112.79,349a8.15,8.15,0,0,0,8.81,6.4l31-3.26a8.12,8.12,0,0,0,7.28-8.09L160,167.4l-1.22-11.53Z" style="fill:#fff;opacity:0.8"></path><rect x="74.99" y="160.26" width="84.48" height="9.42" transform="translate(-16.6 13.16) rotate(-6)" style="fill:#fff;opacity:0.2"></rect><path d="M85.55,173l.23,2.12L119.3,346.31c.79,4,4,6.82,7.44,6.46l25.73-2.7c3.44-.37,6-3.76,5.94-7.87l-2.82-174.47-.22-2.12Z" style="fill:#fff;opacity:0.6000000000000001"></path><g style="opacity:0.5"><path d="M126.7,166.22a.9.9,0,0,0,.8-1l-.63-6-1.79.18.63,6A.91.91,0,0,0,126.7,166.22Z" style="fill:#fff"></path><path d="M132.74,165.58a.89.89,0,0,0,.8-1l-.63-6-1.79.19.63,6A.91.91,0,0,0,132.74,165.58Z" style="fill:#fff"></path><path d="M120.66,166.85a.9.9,0,0,0,.8-1l-.63-6-1.79.19.63,6A.91.91,0,0,0,120.66,166.85Z" style="fill:#fff"></path><path d="M138.78,165a.91.91,0,0,0,.81-1l-.64-6-1.79.18.64,6A.9.9,0,0,0,138.78,165Z" style="fill:#fff"></path><path d="M114.62,167.49a.91.91,0,0,0,.8-1l-.63-6-1.79.18.63,6A.9.9,0,0,0,114.62,167.49Z" style="fill:#fff"></path><path d="M150.87,163.68a.91.91,0,0,0,.8-1l-.63-6-1.79.18.63,6A.9.9,0,0,0,150.87,163.68Z" style="fill:#fff"></path><path d="M144.83,164.31a.9.9,0,0,0,.8-1l-.63-6-1.79.19.63,6A.9.9,0,0,0,144.83,164.31Z" style="fill:#fff"></path><path d="M108.58,168.12a.9.9,0,0,0,.8-1l-.63-6-1.79.19.63,6A.9.9,0,0,0,108.58,168.12Z" style="fill:#fff"></path><path d="M78.37,171.3a.91.91,0,0,0,.8-1l-.63-6-1.79.18.63,6A.9.9,0,0,0,78.37,171.3Z" style="fill:#fff"></path><path d="M84.41,170.66a.9.9,0,0,0,.8-1l-.63-6-1.79.19.63,6A.9.9,0,0,0,84.41,170.66Z" style="fill:#fff"></path><path d="M102.53,168.76a.91.91,0,0,0,.81-1l-.64-6-1.79.18.64,6A.9.9,0,0,0,102.53,168.76Z" style="fill:#fff"></path><path d="M155.29,156.24l.63,6a.9.9,0,1,0,1.79-.19l-.63-6Z" style="fill:#fff"></path><path d="M90.45,170a.9.9,0,0,0,.8-1l-.63-6-1.79.18.63,6A.91.91,0,0,0,90.45,170Z" style="fill:#fff"></path><path d="M96.49,169.39a.89.89,0,0,0,.8-1l-.63-6-1.79.19.63,6A.91.91,0,0,0,96.49,169.39Z" style="fill:#fff"></path></g><path d="M159.87,318.33l0-57.4c-14.62-18-59.39-30.9-76.24-48.48L97.6,277.8C111.81,292.41,149.94,303,159.87,318.33Z" style="fill:#4AA66F"></path><path d="M127.75,270.9s1.94-.16,2.93,4.61,1,8.28,2.51,8.33,4.61-5,4.23-9.46-.58-8.56,0-11.33c.7-3.22,2.82-8.65-1.23-11.66-3.54-2.64-7.28,1.27-10.35,1.59l-.21,0c-3.07.32-7.54-2.72-10.46.6-3.33,3.78-.13,8.66,1.23,11.66,1.17,2.59,1.84,6.64,2.38,11.07s4.68,8.73,6.11,8.38.74-3.79.72-8.67,1.9-5.12,1.9-5.12Z" style="fill:#fff"></path><path d="M154.37,260.13c-.65-2.12-6.42-2.36-14.52-1-.13.71-.28,1.39-.44,2,3.08-.21,5.12.15,5.43,1.14.65,2.11-6.72,6.28-16.47,9.31s-18.19,3.77-18.85,1.66c-.39-1.27,2.12-3.29,6.31-5.35-.16-.57-.34-1.1-.53-1.59-9.45,3.9-15.64,8.1-14.88,10.53,1,3.23,13.89,2.09,28.79-2.54S155.38,263.35,154.37,260.13Z" style="fill:#4AA66F"></path><path d="M154.37,260.13c-.65-2.12-6.42-2.36-14.52-1-.13.71-.28,1.39-.44,2,3.08-.21,5.12.15,5.43,1.14.65,2.11-6.72,6.28-16.47,9.31s-18.19,3.77-18.85,1.66c-.39-1.27,2.12-3.29,6.31-5.35-.16-.57-.34-1.1-.53-1.59-9.45,3.9-15.64,8.1-14.88,10.53,1,3.23,13.89,2.09,28.79-2.54S155.38,263.35,154.37,260.13Z" style="fill:#fff;opacity:0.6000000000000001"></path></g><g id="freepik--speech-bubble--inject-2"><path d="M364.56,133.69,362.27,127a18.67,18.67,0,1,0-7.3,7.59l6.53,2.22A2.41,2.41,0,0,0,364.56,133.69Z" style="fill:#4AA66F"></path><path d="M364.56,133.69,362.27,127a18.67,18.67,0,1,0-7.3,7.59l6.53,2.22A2.41,2.41,0,0,0,364.56,133.69Z" style="fill:#fff;opacity:0.6000000000000001"></path><path d="M346,122s1.41,0,1.76,3.54.12,6,1.18,6.19,3.7-3.26,3.76-6.49a30.73,30.73,0,0,1,.88-8.16c.75-2.26,2.69-6,0-8.49-2.35-2.17-5.34.36-7.58.36h-.15c-2.24,0-5.23-2.53-7.58-.36-2.69,2.47-.75,6.23,0,8.49a30.73,30.73,0,0,1,.88,8.16c.06,3.23,2.71,6.64,3.76,6.49s.83-2.67,1.18-6.19,1.76-3.54,1.76-3.54Z" style="fill:#fff"></path><g style="opacity:0.9"><polygon points="353.08 125.23 343.88 116.03 346.62 113.29 353.08 119.75 364.8 108.03 367.53 110.77 353.08 125.23" style="fill:#4AA66F"></polygon></g></g><g id="freepik--Shield--inject-2"><path d="M343.84,178.92a212.5,212.5,0,0,1-26.65-4.62A202.73,202.73,0,0,1,250,144.75a202.73,202.73,0,0,1-67.19,29.55,212.5,212.5,0,0,1-26.65,4.62c0,.42,0,.82,0,1.24,0,82.51,37,140.07,93.88,185.09,56.86-45,93.88-102.58,93.88-185.09C343.88,179.74,343.84,179.34,343.84,178.92Z" style="fill:#4AA66F"></path><path d="M332.14,189.1l-.17,3.43c-3,62.32-28.22,111.77-79.45,155.61L250,350.3l-2.52-2.16C196.24,304.29,171,254.84,168,192.53l-.17-3.42,3.38-.58c4.83-.83,9.64-1.82,14.29-2.94A215.32,215.32,0,0,0,248,159.91l2-1.24,2,1.24a215.32,215.32,0,0,0,62.44,25.68c4.68,1.13,9.49,2.11,14.29,2.94Z" style="fill:#4AA66F"></path><path d="M317.19,174.3A202.73,202.73,0,0,1,250,144.75h0v13.92h0l2,1.24a215.32,215.32,0,0,0,62.44,25.68c4.68,1.13,9.49,2.11,14.29,2.94l3.38.57-.16,3.43c-3,62.32-28.23,111.77-79.46,155.61L250,350.3h0v14.95h0c56.86-45,93.88-102.58,93.88-185.09,0-.42,0-.82,0-1.24A212.5,212.5,0,0,1,317.19,174.3Z" style="fill:#fff;opacity:0.5"></path><path d="M332.14,189.1l-.17,3.43c-3,62.32-28.22,111.77-79.45,155.61L250,350.3l-2.52-2.16C196.24,304.29,171,254.84,168,192.53l-.17-3.42,3.38-.58c4.83-.83,9.64-1.82,14.29-2.94A215.32,215.32,0,0,0,248,159.91l2-1.24,2,1.24a215.32,215.32,0,0,0,62.44,25.68c4.68,1.13,9.49,2.11,14.29,2.94Z" style="fill:#fff;opacity:0.30000000000000004"></path></g><g id="freepik--Foam--inject-2"><path d="M249.67,161.81a6.28,6.28,0,0,0-2.41.48,3.87,3.87,0,0,0,0-.48,6.32,6.32,0,0,0-4.72-6.11,6.33,6.33,0,0,0-4.55-9.17A7.08,7.08,0,0,0,228,144a15.3,15.3,0,0,0-23.77,4.65,6.9,6.9,0,0,0-1.65-.2,7.06,7.06,0,0,0-6,3.42,6.33,6.33,0,0,0-10.12,7.39,7.05,7.05,0,0,0-4.68,2.7,6.34,6.34,0,1,0-.55,7.82,7.06,7.06,0,0,0,11.65,1,7.06,7.06,0,0,0,11.16-.21,11.67,11.67,0,0,0,14.91.29c.52,0,1-.1,1.54-.18a11.66,11.66,0,0,0,13.29,1.19,6.32,6.32,0,0,0,10.58-.34,6.33,6.33,0,1,0,5.4-9.63Z" style="fill:#4AA66F"></path><path d="M249.67,161.81a6.28,6.28,0,0,0-2.41.48,3.87,3.87,0,0,0,0-.48,6.32,6.32,0,0,0-4.72-6.11,6.33,6.33,0,0,0-4.55-9.17A7.08,7.08,0,0,0,228,144a15.3,15.3,0,0,0-23.77,4.65,6.9,6.9,0,0,0-1.65-.2,7.06,7.06,0,0,0-6,3.42,6.33,6.33,0,0,0-10.12,7.39,7.05,7.05,0,0,0-4.68,2.7,6.34,6.34,0,1,0-.55,7.82,7.06,7.06,0,0,0,11.65,1,7.06,7.06,0,0,0,11.16-.21,11.67,11.67,0,0,0,14.91.29c.52,0,1-.1,1.54-.18a11.66,11.66,0,0,0,13.29,1.19,6.32,6.32,0,0,0,10.58-.34,6.33,6.33,0,1,0,5.4-9.63Z" style="fill:#fff;opacity:0.9"></path><path d="M243,172.23a6.84,6.84,0,0,1-5.59-2.91A12.63,12.63,0,0,1,223,168c-.54.09-1.1.15-1.66.19a12.61,12.61,0,0,1-16.08-.32,7.63,7.63,0,0,1-12,.24,7.63,7.63,0,0,1-12.56-1,6.81,6.81,0,0,1-10.46-.43,6.33,6.33,0,0,0,10.9,3,7.06,7.06,0,0,0,11.65,1,7.06,7.06,0,0,0,11.16-.21,11.67,11.67,0,0,0,14.91.29c.52,0,1-.1,1.54-.18a11.66,11.66,0,0,0,13.29,1.19,6.3,6.3,0,0,0,10.05.39A6.83,6.83,0,0,1,243,172.23Z" style="fill:#4AA66F"></path><path d="M248.76,169a6.85,6.85,0,0,1-4.1,3,6.31,6.31,0,0,0,9.85.22A6.84,6.84,0,0,1,248.76,169Z" style="fill:#4AA66F"></path><g style="opacity:0.7000000000000001"><path d="M243,172.23a6.84,6.84,0,0,1-5.59-2.91A12.63,12.63,0,0,1,223,168c-.54.09-1.1.15-1.66.19a12.61,12.61,0,0,1-16.08-.32,7.63,7.63,0,0,1-12,.24,7.63,7.63,0,0,1-12.56-1,6.81,6.81,0,0,1-10.46-.43,6.33,6.33,0,0,0,10.9,3,7.06,7.06,0,0,0,11.65,1,7.06,7.06,0,0,0,11.16-.21,11.67,11.67,0,0,0,14.91.29c.52,0,1-.1,1.54-.18a11.66,11.66,0,0,0,13.29,1.19,6.3,6.3,0,0,0,10.05.39A6.83,6.83,0,0,1,243,172.23Z" style="fill:#fff"></path><path d="M248.76,169a6.85,6.85,0,0,1-4.1,3,6.31,6.31,0,0,0,9.85.22A6.84,6.84,0,0,1,248.76,169Z" style="fill:#fff"></path></g><path d="M277.72,167.73a5,5,0,0,1,1.9.38c0-.12,0-.25,0-.38a5,5,0,0,1,3.73-4.83,5,5,0,0,1,3.59-7.25,5.61,5.61,0,0,1,8-2,12.11,12.11,0,0,1,18.8,3.68,5.51,5.51,0,0,1,1.3-.16,5.57,5.57,0,0,1,4.78,2.7,5,5,0,0,1,8,5.85,5.64,5.64,0,0,1,3.71,2.13,5,5,0,1,1,.43,6.19,5.59,5.59,0,0,1-9.21.75,5.59,5.59,0,0,1-8.83-.17,9.21,9.21,0,0,1-11.79.23,9.9,9.9,0,0,1-1.22-.14,9.21,9.21,0,0,1-10.51.94,5,5,0,0,1-8.36-.26,5,5,0,1,1-4.26-7.62Z" style="fill:#4AA66F"></path><path d="M277.72,167.73a5,5,0,0,1,1.9.38c0-.12,0-.25,0-.38a5,5,0,0,1,3.73-4.83,5,5,0,0,1,3.59-7.25,5.61,5.61,0,0,1,8-2,12.11,12.11,0,0,1,18.8,3.68,5.51,5.51,0,0,1,1.3-.16,5.57,5.57,0,0,1,4.78,2.7,5,5,0,0,1,8,5.85,5.64,5.64,0,0,1,3.71,2.13,5,5,0,1,1,.43,6.19,5.59,5.59,0,0,1-9.21.75,5.59,5.59,0,0,1-8.83-.17,9.21,9.21,0,0,1-11.79.23,9.9,9.9,0,0,1-1.22-.14,9.21,9.21,0,0,1-10.51.94,5,5,0,0,1-8.36-.26,5,5,0,1,1-4.26-7.62Z" style="fill:#fff;opacity:0.9"></path><path d="M283,176a5.39,5.39,0,0,0,4.42-2.3,9.93,9.93,0,0,0,11.32-1,9.7,9.7,0,0,0,1.32.15,9.94,9.94,0,0,0,12.71-.24,6,6,0,0,0,9.51.18,6,6,0,0,0,9.94-.82,5.36,5.36,0,0,0,8.26-.34A5,5,0,0,1,331.9,174a5.59,5.59,0,0,1-9.21.75,5.59,5.59,0,0,1-8.83-.17,9.21,9.21,0,0,1-11.79.23,9.9,9.9,0,0,1-1.22-.14,9.21,9.21,0,0,1-10.51.94,5,5,0,0,1-7.94.32C282.61,176,282.82,176,283,176Z" style="fill:#4AA66F"></path><path d="M278.43,173.38a5.42,5.42,0,0,0,3.24,2.41,5,5,0,0,1-7.78.17A5.39,5.39,0,0,0,278.43,173.38Z" style="fill:#4AA66F"></path><g style="opacity:0.7000000000000001"><path d="M283,176a5.39,5.39,0,0,0,4.42-2.3,9.93,9.93,0,0,0,11.32-1,9.7,9.7,0,0,0,1.32.15,9.94,9.94,0,0,0,12.71-.24,6,6,0,0,0,9.51.18,6,6,0,0,0,9.94-.82,5.36,5.36,0,0,0,8.26-.34A5,5,0,0,1,331.9,174a5.59,5.59,0,0,1-9.21.75,5.59,5.59,0,0,1-8.83-.17,9.21,9.21,0,0,1-11.79.23,9.9,9.9,0,0,1-1.22-.14,9.21,9.21,0,0,1-10.51.94,5,5,0,0,1-7.94.32C282.61,176,282.82,176,283,176Z" style="fill:#fff"></path><path d="M278.43,173.38a5.42,5.42,0,0,0,3.24,2.41,5,5,0,0,1-7.78.17A5.39,5.39,0,0,0,278.43,173.38Z" style="fill:#fff"></path></g></g><g id="freepik--Tooth--inject-2"><path d="M248.25,318.3s.53,14.7,8.88,14.7,16.69-41.73,16.69-41.73V261.45l-14.31-6.95L248.25,273,244,300.81Z" style="fill:#4AA66F"></path><path d="M248.25,318.3s.53,14.7,8.88,14.7,16.69-41.73,16.69-41.73V261.45l-14.31-6.95L248.25,273,244,300.81Z" style="fill:#fff;opacity:0.7000000000000001"></path><path d="M248.25,318.3s.53,14.7,8.88,14.7,16.69-41.73,16.69-41.73V261.45l-14.31-6.95L248.25,273,244,300.81Z" style="opacity:0.2"></path><path d="M194.92,264.63c-1,13.28-3.58,29.22,8.94,52.47s26.24,20.28,22.06-5.36c0,0,4.18,23.85,17.29,23.85s10.14-59,19.68-59,0,59,13.71,59,28.62-31.6,25.64-56,0-36.37,9.54-51.87,10.55-56.81-17.29-52.47c-5.11.8-20.27,4.17-20.27,4.17s-11.93-8.94-25-1.78c0,0-14.91-10.14-29.82,1.19,0,0-20.86-11.93-33.39,1.79s-6.55,37.56,0,49.48S196,249.18,194.92,264.63Z" style="fill:#4AA66F"></path><path d="M194.92,264.63c-1,13.28-3.58,29.22,8.94,52.47s26.24,20.28,22.06-5.36c0,0,4.18,23.85,17.29,23.85s10.14-59,19.68-59,0,59,13.71,59,28.62-31.6,25.64-56,0-36.37,9.54-51.87,10.55-56.81-17.29-52.47c-5.11.8-20.27,4.17-20.27,4.17s-11.93-8.94-25-1.78c0,0-14.91-10.14-29.82,1.19,0,0-20.86-11.93-33.39,1.79s-6.55,37.56,0,49.48S196,249.18,194.92,264.63Z" style="fill:#fff;opacity:0.8"></path><g style="opacity:0.1"><path d="M205.05,276.16c-1,9,4.76,45.11,12.3,56.18,6.76,2.66,11.19-4.5,8.57-20.6,0,0-4.17-15.31-7.35-31.21S206.25,265.43,205.05,276.16Z"></path><path d="M225.92,311.74s.09.5.28,1.34C226,312.24,225.92,311.74,225.92,311.74Z"></path></g><path d="M268.65,270.2c-6.75-3.18-10.28,12.73-10.28,12.73,1.15-3.91,2.57-6.37,4.52-6.37,9.54,0,0,59,13.71,59C268.25,335.59,275.41,273.38,268.65,270.2Z" style="opacity:0.1"></path><path d="M294.49,175.2c-5.11.8-20.27,4.17-20.27,4.17s-11.93-8.94-25-1.78c0,0-14.91-10.14-29.82,1.19,0,0-20.86-11.93-33.39,1.79-7.48,8.19-8.36,20-6.45,30.74,0,0,5.26,17.95,19.57,14.37s23.85,0,59.82,7.55,49.67,1.65,56.34-13.48C321,201.4,318.4,171.48,294.49,175.2Z" style="fill:#fff;opacity:0.4"></path><path d="M228.62,298.53a2.67,2.67,0,0,1-3.2-2.08c-3.06-15.2-3.68-27.65-4.22-38.7-.19-3.82-.37-7.48-.65-10.91A2.68,2.68,0,0,1,223,244h0a2.7,2.7,0,0,1,2.95,2.48c.28,3.5.46,7.19.65,11,.54,10.85,1.14,23.08,4.12,37.87a2.7,2.7,0,0,1-2.07,3.18Z" style="fill:#4AA66F"></path><path d="M216.79,226.55a73.15,73.15,0,0,1-.64-30.06,2.83,2.83,0,0,1,3.52-2.21h0a2.82,2.82,0,0,1,2.06,3.24c-.9,4.88-2.33,16,.56,27.67a2.83,2.83,0,0,1-1.92,3.39h0A2.84,2.84,0,0,1,216.79,226.55Z" style="fill:#4AA66F"></path><g style="opacity:0.9"><path d="M228.62,298.53a2.67,2.67,0,0,1-3.2-2.08c-3.06-15.2-3.68-27.65-4.22-38.7-.19-3.82-.37-7.48-.65-10.91A2.68,2.68,0,0,1,223,244h0a2.7,2.7,0,0,1,2.95,2.48c.28,3.5.46,7.19.65,11,.54,10.85,1.14,23.08,4.12,37.87a2.7,2.7,0,0,1-2.07,3.18Z" style="fill:#fff"></path></g><g style="opacity:0.9"><path d="M216.79,226.55a73.15,73.15,0,0,1-.64-30.06,2.83,2.83,0,0,1,3.52-2.21h0a2.82,2.82,0,0,1,2.06,3.24c-.9,4.88-2.33,16,.56,27.67a2.83,2.83,0,0,1-1.92,3.39h0A2.84,2.84,0,0,1,216.79,226.55Z" style="fill:#fff"></path></g><path d="M208.43,174.75a5.05,5.05,0,0,0-1.79,7.6c3.43,3.68,12.72-3.57,12.72-3.57A42.79,42.79,0,0,0,208.43,174.75Z" style="opacity:0.1"></path><path d="M288.92,179.07c-6,1.3-14.7.3-14.7.3s-11.93-8.94-25-1.78a52.8,52.8,0,0,0,24.64,5.81C288.53,183.4,294.89,177.78,288.92,179.07Z" style="opacity:0.1"></path></g><g id="freepik--Character--inject-2"><polygon points="315.63 403.23 308.51 400.55 312.71 383.3 319.83 385.99 315.63 403.23" style="fill:#7f3e3b"></polygon><path d="M307.89,399.37l8.68,3.27a.68.68,0,0,1,.43.72l-.92,6.88a1.11,1.11,0,0,1-1.51.88c-2.77-1.1-4.75-2-8.27-3.36-2.16-.82-8.77-3.05-11.75-4.18s-2.3-4.24-1-4.05c5.93.87,10.67.77,13-.16A1.87,1.87,0,0,1,307.89,399.37Z" style="fill:#263238"></path><path d="M305.08,399.73a2.36,2.36,0,0,1-1.24-.88,1.13,1.13,0,0,1,0-1,.58.58,0,0,1,.47-.37c.93-.11,2.71,2.18,2.91,2.44a.18.18,0,0,1,0,.2.17.17,0,0,1-.17.09A9.07,9.07,0,0,1,305.08,399.73Zm-.52-1.88a.66.66,0,0,0-.23,0c-.05,0-.12,0-.18.16a.75.75,0,0,0,0,.7,3.71,3.71,0,0,0,2.48,1.09A7.37,7.37,0,0,0,304.56,397.85Z" style="fill:#4AA66F"></path><path d="M307,400.17l-.08-.05c-.59-.68-1.44-2.79-1-3.53a.59.59,0,0,1,.7-.24,1,1,0,0,1,.64.49c.58,1,0,3.12,0,3.21a.18.18,0,0,1-.13.12Zm-.38-3.44-.08,0c-.23-.06-.29,0-.31.07-.26.44.21,2,.74,2.8a4.38,4.38,0,0,0,0-2.56A.62.62,0,0,0,306.62,396.73Z" style="fill:#4AA66F"></path><polygon points="310.16 393.79 317.57 395.25 319.74 386.36 312.32 384.9 310.16 393.79" style="opacity:0.2"></polygon><path d="M350.76,231.31s-17.7,63-23.35,84.31c-5,18.85-18.59,73.23-18.59,73.23l13,2.78s17.52-53.39,23.57-71.11c7.2-21.06,30.44-84,30.44-84Z" style="fill:#263238"></path><polygon points="307.63 390.44 322.89 393.11 324.19 388.5 307.75 384.8 307.63 390.44" style="fill:#4AA66F"></polygon><path d="M369.53,253.68l-.32-5.43L365.05,245s-7.9,23.52-9.63,47.32C360.22,279.08,365.52,264.58,369.53,253.68Z" style="opacity:0.5"></path><polygon points="382.27 404.69 374.67 404.69 372.51 387.08 380.12 387.08 382.27 404.69" style="fill:#7f3e3b"></polygon><path d="M373.67,403.81h9.27a.69.69,0,0,1,.66.52l1.57,6.76a1.11,1.11,0,0,1-1.1,1.36c-3-.05-5.17-.23-8.93-.23-2.31,0-9.28.24-12.47.24S359,409.3,360.33,409c5.85-1.28,10.25-3,12.11-4.74A1.83,1.83,0,0,1,373.67,403.81Z" style="fill:#263238"></path><path d="M371.17,405.14a2.31,2.31,0,0,1-1.47-.39,1.09,1.09,0,0,1-.39-.95.58.58,0,0,1,.31-.51c.83-.43,3.3,1.08,3.58,1.25a.19.19,0,0,1,.09.18.19.19,0,0,1-.14.15A8.69,8.69,0,0,1,371.17,405.14ZM370,403.57a.53.53,0,0,0-.23,0,.22.22,0,0,0-.12.21.76.76,0,0,0,.26.66,3.67,3.67,0,0,0,2.7.13A7.52,7.52,0,0,0,370,403.57Z" style="fill:#4AA66F"></path><path d="M373.11,404.87a.15.15,0,0,1-.09,0c-.79-.43-2.33-2.09-2.17-2.94a.57.57,0,0,1,.57-.47,1,1,0,0,1,.77.23c.89.72,1.09,2.92,1.1,3a.18.18,0,0,1-.08.16A.19.19,0,0,1,373.11,404.87Zm-1.57-3.08h-.08c-.23,0-.25.14-.26.19-.09.5.89,1.76,1.68,2.35A4.33,4.33,0,0,0,372,402,.63.63,0,0,0,371.54,401.79Z" style="fill:#4AA66F"></path><polygon points="372.57 387.58 373.79 397.51 381.39 397.51 380.18 387.58 372.57 387.58" style="opacity:0.2"></polygon><path d="M363.94,234.08s-.06,62-.35,84.31c-.31,24.44,6.5,76,6.5,76H384s-2.79-46.89-.94-71.11c1.17-15.23,5-43.62,6.44-62.3,1.15-14.51.17-21.69.17-21.69Z" style="fill:#263238"></path><polygon points="368.42 394.7 384.83 394.7 384.78 389.8 367.65 388.81 368.42 394.7" style="fill:#4AA66F"></polygon><path d="M366,177.8c-2.34,3.55-4.73,7.1-7.14,10.61l-7.24,10.51c-1.18,1.75-2.4,3.49-3.53,5.21a15.69,15.69,0,0,1-2.95,3.35,10.19,10.19,0,0,1-4.8,2.28,9.78,9.78,0,0,1-5.12-.51,13.37,13.37,0,0,1-3.68-2.15,17.81,17.81,0,0,1-2.68-2.67,21.87,21.87,0,0,1-2.11-3l3.93-3c.68.52,1.49,1.18,2.26,1.68a17.31,17.31,0,0,0,2.34,1.31c1.53.73,2.89.8,3.29.43a3,3,0,0,0,.77-.72,12.18,12.18,0,0,0,1-1.66c1.1-1.93,2.18-3.8,3.31-5.65q3.36-5.53,6.87-10.93c2.34-3.6,4.73-7.15,7.19-10.68Z" style="fill:#803e3c"></path><path d="M370.31,172.87c1.11,6.47-13.76,21.85-13.76,21.85l-12-10a82.43,82.43,0,0,1,10.79-14.15C361.42,164.43,369.09,165.77,370.31,172.87Z" style="fill:#4AA66F"></path><path d="M370.31,172.87c1.11,6.47-13.76,21.85-13.76,21.85l-12-10a82.43,82.43,0,0,1,10.79-14.15C361.42,164.43,369.09,165.77,370.31,172.87Z" style="fill:#fff;opacity:0.7000000000000001"></path><path d="M360.88,180.37c-3.49,1.1-7.72,6.28-8.79,10.64l4.46,3.71a103.32,103.32,0,0,0,9.79-11.94C365.53,181.07,364.88,179.11,360.88,180.37Z" style="opacity:0.2"></path><path d="M404.51,174.87a169.87,169.87,0,0,0-7.8,24.21c-1.42,5.76-2.52,11.29-3.4,16.32a228.11,228.11,0,0,0-2.69,23.89l-40.83-8.07s4.17-17.45,5.06-24.66c3.31-26.87,7.79-39.79,7.79-39.79a80.42,80.42,0,0,1,9.77.07c.69,0,1.39.12,2.09.19a149.38,149.38,0,0,1,17,3.44c1.06.27,2.13.57,3.17.88C399.93,172.93,404.51,174.87,404.51,174.87Z" style="fill:#4AA66F"></path><g style="opacity:0.7000000000000001"><path d="M404.51,174.87a169.87,169.87,0,0,0-7.8,24.21c-1.42,5.76-2.52,11.29-3.4,16.32a228.11,228.11,0,0,0-2.69,23.89l-40.83-8.07s4.17-17.45,5.06-24.66c3.31-26.87,7.79-39.79,7.79-39.79a80.42,80.42,0,0,1,9.77.07c.69,0,1.39.12,2.09.19a149.38,149.38,0,0,1,17,3.44c1.06.27,2.13.57,3.17.88C399.93,172.93,404.51,174.87,404.51,174.87Z" style="fill:#fff"></path></g><path d="M401.5,182.83,400.18,180l-5.11,4.22s-2.5,12,0,22.07c.5-2.34,1-4.73,1.63-7.18C398,193.79,399.6,188.3,401.5,182.83Z" style="opacity:0.2"></path><path d="M393.46,151c-2.12,5.24-5.11,15-2,19.45A17.16,17.16,0,0,1,377.39,173c-4.68-1.06-4.28-4.39-2.89-6,6.37-.22,7.08-4.77,6.84-9.23Z" style="fill:#7f3e3b"></path><path d="M388.52,153.79l-7.18,4a17.06,17.06,0,0,1,0,3.12c2.39.13,6.07-1.77,6.79-4.16A8.23,8.23,0,0,0,388.52,153.79Z" style="opacity:0.2"></path><path d="M397.07,144.53c-2.77,7-4,11.26-8.85,13.72-7.23,3.7-15-2.56-14.36-10.28.56-6.95,5-17.25,12.93-17.74A10.41,10.41,0,0,1,397.07,144.53Z" style="fill:#7f3e3b"></path><path d="M381,141.66a21.15,21.15,0,0,1-4.4,3.85,3.6,3.6,0,0,0,2.61,1.4Z" style="fill:#630f0f"></path><path d="M388.3,141.43a.37.37,0,0,1-.28-.24,2.94,2.94,0,0,0-1.81-1.88.37.37,0,0,1-.26-.44.35.35,0,0,1,.43-.26A3.61,3.61,0,0,1,388.7,141a.35.35,0,0,1-.22.46A.37.37,0,0,1,388.3,141.43Z" style="fill:#263238"></path><path d="M376.9,137.44a.37.37,0,0,1-.19-.61,3.57,3.57,0,0,1,3.09-1.1.37.37,0,0,1,.28.43.36.36,0,0,1-.42.28,2.74,2.74,0,0,0-2.43.9A.37.37,0,0,1,376.9,137.44Z" style="fill:#263238"></path><path d="M330.65,198.11l-5.06-4.8-2.39,7.36s4.78,4,6.74,1.47Z" style="fill:#7f3e3b"></path><polygon points="318.83 191.85 318.93 198.88 323.2 200.67 325.59 193.31 318.83 191.85" style="fill:#7f3e3b"></polygon><path d="M379,148.64a38.38,38.38,0,0,1,7.22.63c-.85,1.5-2.2,2.62-4.9,2.19A2.49,2.49,0,0,1,379,148.64Z" style="fill:#263238"></path><path d="M382.76,150.4a5,5,0,0,0-3.05.33,2.85,2.85,0,0,0,1.61.73,4.86,4.86,0,0,0,3.05-.33A2.88,2.88,0,0,0,382.76,150.4Z" style="fill:#a02724"></path><path d="M379.25,148.63a1.11,1.11,0,0,0,.71.91,27.73,27.73,0,0,0,4.73.3,1.52,1.52,0,0,0,1.31-.6A45.07,45.07,0,0,0,379.25,148.63Z" style="fill:#fff"></path><path d="M382.62,131.84s-.09-4.16,2.27-6.13,3.18.29,3.18.29,2.24-3.52,5.13-2.89,2.45,2.71,2.45,2.71,3.56-1.72,5.06-.28-1.62,4.45-1,5,10.46-1,5.14,6.28c0,0,5.5.86,1.57,4.81,0,0,4.06,3.9-2.54,4.46,0,0,3.75,3.87-6,3.12l-3.33-5.15-1-5.49-3-3.43-3.58-2.23Z" style="fill:#263238"></path><path d="M393.07,149.24s1.1-6.12-4.31-12.27a2.73,2.73,0,0,1,.72-4.21h0a2.7,2.7,0,0,1,3.26.52c2.17,2.35,5.69,7.59,4.21,15.79Z" style="fill:#4AA66F"></path><path d="M393.07,149.24s1.1-6.12-4.31-12.27a2.73,2.73,0,0,1,.72-4.21h0a2.7,2.7,0,0,1,3.26.52c2.17,2.35,5.69,7.59,4.21,15.79Z" style="fill:#fff;opacity:0.5"></path><path d="M397.89,151.4a7.11,7.11,0,0,1-4.66,2.84c-2.48.37-3.42-1.94-2.48-4.13.84-2,3.15-4.53,5.52-3.89A3.25,3.25,0,0,1,397.89,151.4Z" style="fill:#7f3e3b"></path><path d="M391.06,135.94l.05,0a2.27,2.27,0,0,0,.62-3.3,2.7,2.7,0,0,0-3.57,3.22l1,.31A2.28,2.28,0,0,0,391.06,135.94Z" style="opacity:0.1"></path><path d="M385.71,142.86c-.2.59-.68,1-1.07.84s-.54-.72-.34-1.32.68-1,1.07-.84S385.91,142.26,385.71,142.86Z" style="fill:#263238"></path><path d="M379,140.59c-.2.6-.68,1-1.07.84s-.54-.72-.34-1.32.68-1,1.07-.84S379.16,140,379,140.59Z" style="fill:#263238"></path><path d="M378.78,139.36l-1.3-.9S377.84,139.83,378.78,139.36Z" style="fill:#263238"></path><path d="M385.53,141.63l-1.3-.9S384.59,142.1,385.53,141.63Z" style="fill:#263238"></path><path d="M390,131.5a14.11,14.11,0,0,0-7.32-.16,12.09,12.09,0,0,0-4.14,3.77h.08c.89-.83,3.41-2,10.05.25a2,2,0,0,0,1.74-.18l0,0A2,2,0,0,0,390,131.5Z" style="fill:#4AA66F"></path><path d="M390,131.5a14.11,14.11,0,0,0-7.32-.16,12.09,12.09,0,0,0-4.14,3.77h.08c.89-.83,3.41-2,10.05.25a2,2,0,0,0,1.74-.18l0,0A2,2,0,0,0,390,131.5Z" style="fill:#fff;opacity:0.7000000000000001"></path><path d="M276.35,176.86c-1.2,2.34-2.11,2.59-2.88,2.19s-1.09-1.27.1-3.61,8.23-14.53,9-14.14S277.55,174.52,276.35,176.86Z" style="fill:#263238"></path><path d="M276.35,176.86c-1.2,2.34-2.11,2.59-2.88,2.19s-1.09-1.27.1-3.61,8.23-14.53,9-14.14S277.55,174.52,276.35,176.86Z" style="fill:#fff;opacity:0.6000000000000001"></path><path d="M273.1,178.77a6.18,6.18,0,0,1,.78-2.3c1.06-2.07,6.71-11.9,8.51-13.82.24-.78.32-1.28.18-1.35-.77-.39-7.8,11.8-9,14.14C272.6,177.34,272.64,178.28,273.1,178.77Z" style="fill:#fff;opacity:0.9"></path><path d="M273.57,175.44c-1.19,2.34-2.11,2.58-2.87,2.19s-1.1-1.28.09-3.61,8.23-14.54,9-14.14S274.77,173.1,273.57,175.44Z" style="fill:#263238"></path><path d="M273.57,175.44c-1.19,2.34-2.11,2.58-2.87,2.19s-1.1-1.28.09-3.61,8.23-14.54,9-14.14S274.77,173.1,273.57,175.44Z" style="fill:#fff;opacity:0.6000000000000001"></path><path d="M270.32,177.35a6.13,6.13,0,0,1,.78-2.3c1.06-2.08,6.71-11.9,8.51-13.82.24-.78.32-1.28.18-1.35-.77-.4-7.8,11.8-9,14.14C269.82,175.91,269.86,176.85,270.32,177.35Z" style="fill:#fff;opacity:0.9"></path><path d="M270.79,174c-1.19,2.33-2.1,2.58-2.87,2.19s-1.1-1.28.1-3.62,8.23-14.53,9-14.14S272,171.68,270.79,174Z" style="fill:#263238"></path><path d="M270.79,174c-1.19,2.33-2.1,2.58-2.87,2.19s-1.1-1.28.1-3.62,8.23-14.53,9-14.14S272,171.68,270.79,174Z" style="fill:#fff;opacity:0.6000000000000001"></path><path d="M267.54,175.93a6.16,6.16,0,0,1,.78-2.31c1.07-2.07,6.72-11.89,8.52-13.81.23-.78.32-1.28.17-1.36-.76-.39-7.8,11.81-9,14.14C267,174.49,267.08,175.43,267.54,175.93Z" style="fill:#fff;opacity:0.9"></path><path d="M268,172.59c-1.2,2.34-2.11,2.59-2.88,2.2s-1.1-1.28.1-3.62,8.23-14.53,9-14.14S269.21,170.26,268,172.59Z" style="fill:#263238"></path><path d="M268,172.59c-1.2,2.34-2.11,2.59-2.88,2.2s-1.1-1.28.1-3.62,8.23-14.53,9-14.14S269.21,170.26,268,172.59Z" style="fill:#fff;opacity:0.6000000000000001"></path><path d="M264.76,174.51a6.22,6.22,0,0,1,.79-2.31c1.06-2.07,6.71-11.9,8.51-13.82.23-.78.32-1.28.18-1.35-.77-.39-7.8,11.8-9,14.14C264.27,173.07,264.3,174,264.76,174.51Z" style="fill:#fff;opacity:0.9"></path><path d="M265.24,171.17c-1.2,2.34-2.11,2.59-2.88,2.19s-1.09-1.28.1-3.61,8.23-14.54,9-14.14S266.44,168.83,265.24,171.17Z" style="fill:#263238"></path><path d="M265.24,171.17c-1.2,2.34-2.11,2.59-2.88,2.19s-1.09-1.28.1-3.61,8.23-14.54,9-14.14S266.44,168.83,265.24,171.17Z" style="fill:#fff;opacity:0.6000000000000001"></path><path d="M262,173.08a6.18,6.18,0,0,1,.78-2.3c1.06-2.08,6.71-11.9,8.51-13.82.24-.78.32-1.28.18-1.35-.77-.4-7.8,11.8-9,14.14C261.49,171.65,261.53,172.59,262,173.08Z" style="fill:#fff;opacity:0.9"></path><path d="M262.46,169.75c-1.19,2.33-2.11,2.58-2.87,2.19s-1.1-1.28.1-3.61,8.22-14.54,9-14.14S263.66,167.41,262.46,169.75Z" style="fill:#4AA66F"></path><path d="M262.46,169.75c-1.19,2.33-2.11,2.58-2.87,2.19s-1.1-1.28.1-3.61,8.22-14.54,9-14.14S263.66,167.41,262.46,169.75Z" style="fill:#fff;opacity:0.5"></path><path d="M259.21,171.66a6.07,6.07,0,0,1,.78-2.3c1.06-2.08,6.71-11.9,8.51-13.82.24-.78.32-1.28.18-1.35-.77-.4-7.8,11.8-9,14.14C258.71,170.22,258.75,171.16,259.21,171.66Z" style="fill:#fff;opacity:0.9"></path><path d="M259.69,168.33c-1.2,2.33-2.11,2.58-2.88,2.19s-1.1-1.28.1-3.62,8.23-14.53,9-14.14S260.88,166,259.69,168.33Z" style="fill:#4AA66F"></path><path d="M259.69,168.33c-1.2,2.33-2.11,2.58-2.88,2.19s-1.1-1.28.1-3.62,8.23-14.53,9-14.14S260.88,166,259.69,168.33Z" style="fill:#fff;opacity:0.5"></path><path d="M256.43,170.24a6,6,0,0,1,.79-2.31c1.06-2.07,6.71-11.9,8.51-13.81.23-.78.32-1.28.17-1.36-.76-.39-7.79,11.81-9,14.14C255.94,168.8,256,169.74,256.43,170.24Z" style="fill:#fff;opacity:0.9"></path><path d="M256.91,166.9c-1.2,2.34-2.11,2.59-2.88,2.2s-1.1-1.28.1-3.62,8.23-14.53,9-14.14S258.11,164.57,256.91,166.9Z" style="fill:#4AA66F"></path><path d="M256.91,166.9c-1.2,2.34-2.11,2.59-2.88,2.2s-1.1-1.28.1-3.62,8.23-14.53,9-14.14S258.11,164.57,256.91,166.9Z" style="fill:#fff;opacity:0.5"></path><path d="M253.65,168.82a6.41,6.41,0,0,1,.79-2.31c1.06-2.07,6.71-11.9,8.51-13.82.24-.78.32-1.28.18-1.35-.77-.39-7.8,11.8-9,14.14C253.16,167.38,253.19,168.32,253.65,168.82Z" style="fill:#fff;opacity:0.9"></path><path d="M254.13,165.48c-1.2,2.34-2.11,2.59-2.88,2.19s-1.09-1.28.1-3.61,8.23-14.54,9-14.14S255.33,163.14,254.13,165.48Z" style="fill:#263238"></path><path d="M254.13,165.48c-1.2,2.34-2.11,2.59-2.88,2.19s-1.09-1.28.1-3.61,8.23-14.54,9-14.14S255.33,163.14,254.13,165.48Z" style="fill:#fff;opacity:0.6000000000000001"></path><path d="M250.88,167.39a6.13,6.13,0,0,1,.78-2.3c1.06-2.08,6.71-11.9,8.51-13.82.24-.78.32-1.28.18-1.35-.77-.4-7.8,11.8-9,14.14C250.38,166,250.42,166.9,250.88,167.39Z" style="fill:#fff;opacity:0.9"></path><path d="M251.35,164.06c-1.19,2.33-2.11,2.58-2.87,2.19s-1.1-1.28.1-3.62,8.22-14.53,9-14.14S252.55,161.72,251.35,164.06Z" style="fill:#263238"></path><path d="M251.35,164.06c-1.19,2.33-2.11,2.58-2.87,2.19s-1.1-1.28.1-3.62,8.22-14.53,9-14.14S252.55,161.72,251.35,164.06Z" style="fill:#fff;opacity:0.6000000000000001"></path><path d="M248.1,166a6.16,6.16,0,0,1,.78-2.31c1.06-2.07,6.72-11.89,8.51-13.81.24-.78.32-1.28.18-1.36-.77-.39-7.8,11.81-9,14.14C247.6,164.53,247.64,165.47,248.1,166Z" style="fill:#fff;opacity:0.9"></path><path d="M291,167.86c11.87,8.62,31.39,29.57,43.27,38.19,23.27,16.89,102.36,52.44,102.36,52.44a5.36,5.36,0,0,0,7.2-2.33h0a5.35,5.35,0,0,0-2.32-7.2s-81.4-36.28-105.13-53.85c-10.69-7.91-27.95-27.15-38.66-35.05-8.3-6.11-36.77-18.63-36.77-18.63a4.91,4.91,0,0,0-6.6,2.14h0a4.91,4.91,0,0,0,2.14,6.61S283.13,162.17,291,167.86Z" style="fill:#4AA66F"></path><path d="M407.34,181.71c.75,2.56,1.33,5,1.91,7.54s1.05,5.05,1.48,7.62.76,5.17,1,7.84a47,47,0,0,1,0,8.38,18.73,18.73,0,0,1-1.14,4.87,10.76,10.76,0,0,1-1.55,2.69,9.32,9.32,0,0,1-1,1.08,10.34,10.34,0,0,1-1,.91,24.16,24.16,0,0,1-8,4.07,56.09,56.09,0,0,1-15.69,2.42l-.62-4.92a88.65,88.65,0,0,0,13.45-4.81,18.11,18.11,0,0,0,5-3.29,3,3,0,0,0,.35-.4,2.15,2.15,0,0,0,.25-.36,3.07,3.07,0,0,0,.25-.59,10.85,10.85,0,0,0,.34-2.48,39.41,39.41,0,0,0-.35-6.64c-.28-2.32-.66-4.68-1.12-7-.89-4.72-2-9.56-3.19-14.18Z" style="fill:#803e3c"></path><path d="M406.81,176c5.37,3.77,7.14,23.27,7.14,23.27l-16.66,2a96,96,0,0,1-2.22-17.14C394.87,175,400.3,171.46,406.81,176Z" style="fill:#4AA66F"></path><path d="M406.81,176c5.37,3.77,7.14,23.27,7.14,23.27l-16.66,2a96,96,0,0,1-2.22-17.14C394.87,175,400.3,171.46,406.81,176Z" style="fill:#fff;opacity:0.7000000000000001"></path><path d="M383.39,224.28,376.82,222l.95,8.74s6,.65,6.69-2.51Z" style="fill:#7f3e3b"></path><polygon points="371.44 223.91 372.56 231.09 377.77 230.78 376.81 222.04 371.44 223.91" style="fill:#7f3e3b"></polygon></g></svg>
